<?xml version="1.0" encoding="UTF-8" standalone="no"?>
<!-- Created with Inkscape (http://www.inkscape.org/) -->

<svg
   xmlns:dc="http://purl.org/dc/elements/1.1/"
   xmlns:cc="http://creativecommons.org/ns#"
   xmlns:rdf="http://www.w3.org/1999/02/22-rdf-syntax-ns#"
   xmlns:svg="http://www.w3.org/2000/svg"
   xmlns="http://www.w3.org/2000/svg"
   xmlns:sodipodi="http://sodipodi.sourceforge.net/DTD/sodipodi-0.dtd"
   xmlns:inkscape="http://www.inkscape.org/namespaces/inkscape"
   width="249.57205mm"
   height="35.051979mm"
   viewBox="0 0 249.57205 35.051979"
   version="1.1"
   id="leyend"
   inkscape:version="0.92.5 (2060ec1f9f, 2020-04-08)"
   sodipodi:docname="legend.svg">
  <defs
     id="defs4885">
    <inkscape:path-effect
       effect="bspline"
       id="path-effect3315"
       is_visible="true"
       weight="33.333333"
       steps="2"
       helper_size="0"
       apply_no_weight="true"
       apply_with_weight="true"
       only_selected="false" />
    <inkscape:path-effect
       effect="bspline"
       id="path-effect3311"
       is_visible="true"
       weight="33.333333"
       steps="2"
       helper_size="0"
       apply_no_weight="true"
       apply_with_weight="true"
       only_selected="false" />
    <inkscape:path-effect
       effect="bspline"
       id="path-effect1040"
       is_visible="true"
       weight="33.333333"
       steps="2"
       helper_size="0"
       apply_no_weight="true"
       apply_with_weight="true"
       only_selected="false" />
    <inkscape:path-effect
       effect="bspline"
       id="path-effect1032"
       is_visible="true"
       weight="33.333333"
       steps="2"
       helper_size="0"
       apply_no_weight="true"
       apply_with_weight="true"
       only_selected="false" />
    <inkscape:path-effect
       effect="bspline"
       id="path-effect1028"
       is_visible="true"
       weight="33.333333"
       steps="2"
       helper_size="0"
       apply_no_weight="true"
       apply_with_weight="true"
       only_selected="false" />
    <inkscape:path-effect
       effect="bspline"
       id="path-effect3311-7"
       is_visible="true"
       weight="33.333333"
       steps="2"
       helper_size="0"
       apply_no_weight="true"
       apply_with_weight="true"
       only_selected="false" />
  </defs>
  <sodipodi:namedview
     id="base"
     pagecolor="#ffffff"
     bordercolor="#666666"
     borderopacity="1.0"
     inkscape:pageopacity="0.0"
     inkscape:pageshadow="2"
     inkscape:zoom="2.1141564"
     inkscape:cx="313.5405"
     inkscape:cy="50.402239"
     inkscape:document-units="mm"
     inkscape:current-layer="premodal"
     showgrid="false"
     inkscape:window-width="2488"
     inkscape:window-height="1376"
     inkscape:window-x="1992"
     inkscape:window-y="27"
     inkscape:window-maximized="1"
     showguides="true"
     inkscape:guide-bbox="true"
     fit-margin-top="10"
     fit-margin-left="10"
     fit-margin-bottom="10"
     fit-margin-right="10">
    <sodipodi:guide
       position="-48.176715,9.4426169"
       orientation="1,0"
       id="guide5485"
       inkscape:locked="false" />
    <sodipodi:guide
       position="-40.930779,11.665797"
       orientation="1,0"
       id="guide5487"
       inkscape:locked="false" />
    <sodipodi:guide
       position="112.2087,3.8401448"
       orientation="0,1"
       id="guide1565"
       inkscape:locked="false" />
    <sodipodi:guide
       position="1.55501,64.754859"
       orientation="0,1"
       id="guide3307"
       inkscape:locked="false" />
    <sodipodi:guide
       position="46.822817,10.857537"
       orientation="0,1"
       id="guide3354"
       inkscape:locked="false" />
    <sodipodi:guide
       position="92.48468,21.775825"
       orientation="0,1"
       id="guide699"
       inkscape:locked="false" />
  </sodipodi:namedview>
  <metadata
     id="metadata4888">
    <rdf:RDF>
      <cc:Work
         rdf:about="">
        <dc:format>image/svg+xml</dc:format>
        <dc:type
           rdf:resource="http://purl.org/dc/dcmitype/StillImage" />
        <dc:title />
      </cc:Work>
    </rdf:RDF>
  </metadata>
  <g
     inkscape:label="Layer 1"
     inkscape:groupmode="layer"
     id="layer1"
     transform="translate(-117.34248,-120.37873)">
    <g
       id="epistemic"
       class="modal"
       inkscape:label="epistemic">
      <rect
         y="142.12054"
         x="127.5723"
         height="2.3163805"
         width="2.5888956"
         id="rect1379"
         style="opacity:0.97000002;fill:#00a368;fill-opacity:1;stroke:#00a368;stroke-width:0.45965612;stroke-miterlimit:4;stroke-dasharray:none;stroke-dashoffset:0;stroke-opacity:1;paint-order:stroke markers fill" />
      <g
         transform="matrix(0.64923175,0,0,0.64923175,49.074167,51.012475)"
         id="text1383"
         style="font-style:normal;font-weight:normal;font-size:6.3499999px;line-height:1.25;font-family:sans-serif;letter-spacing:0px;word-spacing:0px;fill:#000000;fill-opacity:1;stroke:none;stroke-width:0.26458332"
         aria-label="Modal: epistemic">
        <path
           inkscape:connector-curvature="0"
           id="path1183"
           style="font-size:6.3499999px;stroke-width:0.26458332"
           d="m 127.91147,139.48069 h 0.93328 l 1.18132,3.15019 1.18753,-3.15019 h 0.93327 v 4.62917 h -0.61081 V 140.045 l -1.19373,3.175 h -0.62942 l -1.19372,-3.175 v 4.06486 h -0.60772 z" />
        <path
           inkscape:connector-curvature="0"
           id="path1185"
           style="font-size:6.3499999px;stroke-width:0.26458332"
           d="m 134.71416,141.03718 q -0.45889,0 -0.72554,0.35967 -0.26665,0.35657 -0.26665,0.97979 0,0.62321 0.26355,0.98288 0.26665,0.35657 0.72864,0.35657 0.45578,0 0.72243,-0.35967 0.26665,-0.35967 0.26665,-0.97978 0,-0.61702 -0.26665,-0.97669 -0.26665,-0.36277 -0.72243,-0.36277 z m 0,-0.48369 q 0.74414,0 1.16892,0.48369 0.42478,0.48369 0.42478,1.33946 0,0.85266 -0.42478,1.33945 -0.42478,0.48369 -1.16892,0.48369 -0.74724,0 -1.17202,-0.48369 -0.42168,-0.48679 -0.42168,-1.33945 0,-0.85577 0.42168,-1.33946 0.42478,-0.48369 1.17202,-0.48369 z" />
        <path
           inkscape:connector-curvature="0"
           id="path1187"
           style="font-size:6.3499999px;stroke-width:0.26458332"
           d="m 139.53557,141.16431 v -1.87896 h 0.57051 v 4.82451 h -0.57051 v -0.5209 q -0.17984,0.31006 -0.45579,0.46199 -0.27285,0.14883 -0.65732,0.14883 -0.62942,0 -1.0263,-0.50229 -0.39377,-0.5023 -0.39377,-1.32085 0,-0.81856 0.39377,-1.32085 0.39688,-0.5023 1.0263,-0.5023 0.38447,0 0.65732,0.15193 0.27595,0.14883 0.45579,0.45889 z m -1.94407,1.21233 q 0,0.62941 0.25735,0.98908 0.26045,0.35657 0.71313,0.35657 0.45269,0 0.71314,-0.35657 0.26045,-0.35967 0.26045,-0.98908 0,-0.62942 -0.26045,-0.98599 -0.26045,-0.35967 -0.71314,-0.35967 -0.45268,0 -0.71313,0.35967 -0.25735,0.35657 -0.25735,0.98599 z" />
        <path
           inkscape:connector-curvature="0"
           id="path1189"
           style="font-size:6.3499999px;stroke-width:0.26458332"
           d="m 142.8594,142.36423 q -0.69143,0 -0.95808,0.15813 -0.26666,0.15813 -0.26666,0.53951 0,0.30385 0.19844,0.48369 0.20154,0.17673 0.54571,0.17673 0.47439,0 0.75964,-0.33486 0.28835,-0.33797 0.28835,-0.89607 v -0.12713 z m 1.13791,-0.23564 v 1.98127 h -0.57051 v -0.5271 q -0.19533,0.31626 -0.48679,0.46819 -0.29145,0.14883 -0.71313,0.14883 -0.5333,0 -0.84956,-0.29766 -0.31316,-0.30075 -0.31316,-0.80305 0,-0.58601 0.39067,-0.88366 0.39378,-0.29766 1.17202,-0.29766 h 0.79995 v -0.0558 q 0,-0.39378 -0.26045,-0.60772 -0.25734,-0.21704 -0.72553,-0.21704 -0.29766,0 -0.57981,0.0713 -0.28216,0.0713 -0.5426,0.21394 v -0.5271 q 0.31315,-0.12093 0.60771,-0.17984 0.29456,-0.062 0.57361,-0.062 0.75344,0 1.12551,0.39068 0.37207,0.39067 0.37207,1.18442 z" />
        <path
           inkscape:connector-curvature="0"
           id="path1191"
           style="font-size:6.3499999px;stroke-width:0.26458332"
           d="m 145.17553,139.28535 h 0.57051 v 4.82451 h -0.57051 z" />
        <path
           inkscape:connector-curvature="0"
           id="path1193"
           style="font-size:6.3499999px;stroke-width:0.26458332"
           d="m 147.08239,143.32231 h 0.65423 v 0.78755 h -0.65423 z m 0,-2.49597 h 0.65423 v 0.78755 h -0.65423 z" />
        <path
           inkscape:connector-curvature="0"
           id="path1195"
           style="font-size:6.3499999px;stroke-width:0.26458332"
           d="m 154.07422,142.23091 v 0.27905 h -2.6231 q 0.0372,0.58911 0.35347,0.89917 0.31936,0.30696 0.88676,0.30696 0.32867,0 0.63562,-0.0806 0.31006,-0.0806 0.61392,-0.24184 v 0.5395 q -0.30696,0.13022 -0.62942,0.19844 -0.32246,0.0682 -0.65422,0.0682 -0.83096,0 -1.31775,-0.48369 -0.48369,-0.48369 -0.48369,-1.30845 0,-0.85266 0.45888,-1.35185 0.46199,-0.5023 1.24334,-0.5023 0.70073,0 1.10691,0.45269 0.40928,0.44958 0.40928,1.22473 z m -0.57051,-0.16743 q -0.006,-0.46819 -0.26355,-0.74724 -0.25425,-0.27906 -0.67593,-0.27906 -0.47749,0 -0.76584,0.26975 -0.28526,0.26975 -0.32867,0.75965 z" />
        <path
           inkscape:connector-curvature="0"
           id="path1197"
           style="font-size:6.3499999px;stroke-width:0.26458332"
           d="m 155.5625,143.58896 v 1.84175 h -0.57361 v -4.7935 h 0.57361 v 0.5271 q 0.17983,-0.31006 0.45268,-0.45889 0.27595,-0.15193 0.65733,-0.15193 0.63252,0 1.02629,0.5023 0.39688,0.50229 0.39688,1.32085 0,0.81855 -0.39688,1.32085 -0.39377,0.50229 -1.02629,0.50229 -0.38138,0 -0.65733,-0.14883 -0.27285,-0.15193 -0.45268,-0.46199 z m 1.94096,-1.21232 q 0,-0.62942 -0.26045,-0.98599 -0.25734,-0.35967 -0.71003,-0.35967 -0.45268,0 -0.71313,0.35967 -0.25735,0.35657 -0.25735,0.98599 0,0.62941 0.25735,0.98908 0.26045,0.35657 0.71313,0.35657 0.45269,0 0.71003,-0.35657 0.26045,-0.35967 0.26045,-0.98908 z" />
        <path
           inkscape:connector-curvature="0"
           id="path1199"
           style="font-size:6.3499999px;stroke-width:0.26458332"
           d="m 159.04135,140.63721 h 0.57051 v 3.47265 h -0.57051 z m 0,-1.35186 h 0.57051 v 0.72244 h -0.57051 z" />
        <path
           inkscape:connector-curvature="0"
           id="path1201"
           style="font-size:6.3499999px;stroke-width:0.26458332"
           d="m 163.01631,140.73953 v 0.5395 q -0.24185,-0.12403 -0.5023,-0.18604 -0.26045,-0.062 -0.5395,-0.062 -0.42478,0 -0.63872,0.13023 -0.21084,0.13022 -0.21084,0.39067 0,0.19844 0.15193,0.31316 0.15193,0.11162 0.61081,0.21394 l 0.19534,0.0434 q 0.60771,0.13022 0.86196,0.36897 0.25735,0.23564 0.25735,0.66042 0,0.48369 -0.38447,0.76585 -0.38137,0.28215 -1.0511,0.28215 -0.27905,0 -0.58291,-0.0558 -0.30076,-0.0527 -0.63562,-0.16123 v -0.58911 q 0.31626,0.16433 0.62322,0.24804 0.30696,0.0806 0.60771,0.0806 0.40308,0 0.62012,-0.13643 0.21704,-0.13952 0.21704,-0.39067 0,-0.23254 -0.15813,-0.35657 -0.15503,-0.12402 -0.68523,-0.23874 l -0.19844,-0.0465 q -0.5302,-0.11162 -0.76584,-0.34107 -0.23565,-0.23254 -0.23565,-0.63562 0,-0.48989 0.34727,-0.75654 0.34727,-0.26665 0.98599,-0.26665 0.31626,0 0.59531,0.0465 0.27905,0.0465 0.5147,0.13953 z" />
        <path
           inkscape:connector-curvature="0"
           id="path1203"
           style="font-size:6.3499999px;stroke-width:0.26458332"
           d="m 164.67822,139.65122 v 0.98599 h 1.17512 v 0.44338 h -1.17512 v 1.88516 q 0,0.42478 0.11472,0.5457 0.11782,0.12092 0.47439,0.12092 h 0.58601 v 0.47749 h -0.58601 q -0.66042,0 -0.91157,-0.24494 -0.25115,-0.24805 -0.25115,-0.89917 v -1.88516 h -0.41858 v -0.44338 h 0.41858 v -0.98599 z" />
        <path
           inkscape:connector-curvature="0"
           id="path1205"
           style="font-size:6.3499999px;stroke-width:0.26458332"
           d="m 169.57714,142.23091 v 0.27905 h -2.62309 q 0.0372,0.58911 0.35346,0.89917 0.31937,0.30696 0.88677,0.30696 0.32866,0 0.63562,-0.0806 0.31006,-0.0806 0.61392,-0.24184 v 0.5395 q -0.30696,0.13022 -0.62942,0.19844 -0.32246,0.0682 -0.65422,0.0682 -0.83096,0 -1.31775,-0.48369 -0.48369,-0.48369 -0.48369,-1.30845 0,-0.85266 0.45888,-1.35185 0.46199,-0.5023 1.24334,-0.5023 0.70073,0 1.10691,0.45269 0.40927,0.44958 0.40927,1.22473 z m -0.5705,-0.16743 q -0.006,-0.46819 -0.26355,-0.74724 -0.25425,-0.27906 -0.67593,-0.27906 -0.47749,0 -0.76585,0.26975 -0.28525,0.26975 -0.32866,0.75965 z" />
        <path
           inkscape:connector-curvature="0"
           id="path1207"
           style="font-size:6.3499999px;stroke-width:0.26458332"
           d="m 173.21723,141.30383 q 0.21394,-0.38447 0.5116,-0.5674 0.29765,-0.18294 0.70073,-0.18294 0.5426,0 0.83716,0.38137 0.29455,0.37827 0.29455,1.07901 v 2.09599 h -0.5736 v -2.07739 q 0,-0.49919 -0.17674,-0.74104 -0.17673,-0.24184 -0.5395,-0.24184 -0.44338,0 -0.70073,0.29455 -0.25735,0.29456 -0.25735,0.80305 v 1.96267 h -0.57361 v -2.07739 q 0,-0.50229 -0.17673,-0.74104 -0.17674,-0.24184 -0.54571,-0.24184 -0.43718,0 -0.69453,0.29765 -0.25734,0.29456 -0.25734,0.79995 v 1.96267 h -0.57361 v -3.47265 h 0.57361 v 0.5395 q 0.19533,-0.31936 0.46818,-0.47129 0.27286,-0.15193 0.64803,-0.15193 0.37827,0 0.64182,0.19224 0.26665,0.19223 0.39377,0.5581 z" />
        <path
           inkscape:connector-curvature="0"
           id="path1209"
           style="font-size:6.3499999px;stroke-width:0.26458332"
           d="m 176.70229,140.63721 h 0.57051 v 3.47265 h -0.57051 z m 0,-1.35186 h 0.57051 v 0.72244 h -0.57051 z" />
        <path
           inkscape:connector-curvature="0"
           id="path1211"
           style="font-size:6.3499999px;stroke-width:0.26458332"
           d="m 180.96249,140.77053 v 0.5333 q -0.24184,-0.13332 -0.48679,-0.19843 -0.24184,-0.0682 -0.48989,-0.0682 -0.555,0 -0.86196,0.35347 -0.30696,0.35037 -0.30696,0.98599 0,0.63562 0.30696,0.98908 0.30696,0.35037 0.86196,0.35037 0.24805,0 0.48989,-0.0651 0.24495,-0.0682 0.48679,-0.20154 v 0.5271 q -0.23874,0.11162 -0.49609,0.16743 -0.25425,0.0558 -0.5426,0.0558 -0.78445,0 -1.24644,-0.49299 -0.46198,-0.493 -0.46198,-1.33015 0,-0.84956 0.46508,-1.33636 0.46819,-0.48679 1.28055,-0.48679 0.26355,0 0.51469,0.0558 0.25115,0.0527 0.48679,0.16123 z" />
      </g>
    </g>
    <g
       id="postmodal"
       inkscape:label="postmodal"
       transform="translate(-0.05440154,-3.9490173)">
      <rect
         y="140.28426"
         x="177.11171"
         height="2.3163805"
         width="2.588896"
         id="rect1379-3"
         style="opacity:0.97000002;fill:#ff7f00;fill-opacity:1;stroke:#ff7f00;stroke-width:0.45965612;stroke-miterlimit:4;stroke-dasharray:none;stroke-dashoffset:0;stroke-opacity:0.94117647;paint-order:stroke markers fill" />
      <g
         transform="matrix(0.64923175,0,0,0.64923175,49.074167,54.716644)"
         id="text1383-7"
         style="font-style:normal;font-weight:normal;font-size:6.3499999px;line-height:1.25;font-family:sans-serif;letter-spacing:0px;word-spacing:0px;fill:#000000;fill-opacity:1;stroke:none;stroke-width:0.26458332"
         aria-label="Postmodal: futurity">
        <path
           inkscape:connector-curvature="0"
           id="path1214"
           style="font-size:6.3499999px;stroke-width:0.26458332"
           d="m 205.02006,131.55251 v 1.73943 h 0.78755 q 0.43718,0 0.67593,-0.22634 0.23874,-0.22634 0.23874,-0.64492 0,-0.41548 -0.23874,-0.64182 -0.23875,-0.22635 -0.67593,-0.22635 z m -0.62632,-0.51469 h 1.41387 q 0.77825,0 1.17512,0.35346 0.39998,0.35037 0.39998,1.0294 0,0.68523 -0.39998,1.03559 -0.39687,0.35037 -1.17512,0.35037 h -0.78755 v 1.86035 h -0.62632 z" />
        <path
           inkscape:connector-curvature="0"
           id="path1216"
           style="font-size:6.3499999px;stroke-width:0.26458332"
           d="m 209.32367,132.59431 q -0.45888,0 -0.72553,0.35967 -0.26666,0.35657 -0.26666,0.97978 0,0.62322 0.26355,0.98289 0.26666,0.35657 0.72864,0.35657 0.45579,0 0.72244,-0.35967 0.26665,-0.35967 0.26665,-0.97979 0,-0.61701 -0.26665,-0.97668 -0.26665,-0.36277 -0.72244,-0.36277 z m 0,-0.48369 q 0.74414,0 1.16892,0.48369 0.42478,0.48369 0.42478,1.33945 0,0.85267 -0.42478,1.33946 -0.42478,0.48369 -1.16892,0.48369 -0.74724,0 -1.17202,-0.48369 -0.42168,-0.48679 -0.42168,-1.33946 0,-0.85576 0.42168,-1.33945 0.42478,-0.48369 1.17202,-0.48369 z" />
        <path
           inkscape:connector-curvature="0"
           id="path1218"
           style="font-size:6.3499999px;stroke-width:0.26458332"
           d="m 214.07377,132.29666 v 0.5395 q -0.24185,-0.12403 -0.5023,-0.18604 -0.26044,-0.062 -0.5395,-0.062 -0.42478,0 -0.63872,0.13023 -0.21084,0.13022 -0.21084,0.39067 0,0.19844 0.15193,0.31316 0.15193,0.11162 0.61082,0.21394 l 0.19533,0.0434 q 0.60772,0.13022 0.86197,0.36897 0.25735,0.23564 0.25735,0.66042 0,0.48369 -0.38448,0.76585 -0.38137,0.28215 -1.0511,0.28215 -0.27905,0 -0.58291,-0.0558 -0.30075,-0.0527 -0.63562,-0.16123 v -0.58911 q 0.31626,0.16433 0.62322,0.24804 0.30696,0.0806 0.60772,0.0806 0.40307,0 0.62011,-0.13643 0.21704,-0.13952 0.21704,-0.39067 0,-0.23254 -0.15813,-0.35657 -0.15502,-0.12402 -0.68523,-0.23874 l -0.19843,-0.0465 q -0.5302,-0.11162 -0.76585,-0.34107 -0.23564,-0.23254 -0.23564,-0.63562 0,-0.48989 0.34726,-0.75654 0.34727,-0.26665 0.98599,-0.26665 0.31626,0 0.59531,0.0465 0.27906,0.0465 0.5147,0.13953 z" />
        <path
           inkscape:connector-curvature="0"
           id="path1220"
           style="font-size:6.3499999px;stroke-width:0.26458332"
           d="m 215.73568,131.20835 v 0.98599 h 1.17513 v 0.44338 h -1.17513 v 1.88516 q 0,0.42478 0.11473,0.5457 0.11782,0.12092 0.47438,0.12092 h 0.58602 v 0.47749 h -0.58602 q -0.66042,0 -0.91157,-0.24494 -0.25114,-0.24805 -0.25114,-0.89917 v -1.88516 h -0.41858 v -0.44338 h 0.41858 v -0.98599 z" />
        <path
           inkscape:connector-curvature="0"
           id="path1222"
           style="font-size:6.3499999px;stroke-width:0.26458332"
           d="m 220.36796,132.86096 q 0.21394,-0.38447 0.5116,-0.56741 0.29765,-0.18293 0.70073,-0.18293 0.5426,0 0.83716,0.38137 0.29455,0.37827 0.29455,1.07901 v 2.09599 h -0.57361 v -2.07739 q 0,-0.49919 -0.17673,-0.74104 -0.17673,-0.24185 -0.5395,-0.24185 -0.44339,0 -0.70073,0.29456 -0.25735,0.29456 -0.25735,0.80305 v 1.96267 h -0.57361 v -2.07739 q 0,-0.5023 -0.17673,-0.74104 -0.17674,-0.24185 -0.54571,-0.24185 -0.43718,0 -0.69453,0.29766 -0.25735,0.29456 -0.25735,0.79995 v 1.96267 h -0.57361 v -3.47265 h 0.57361 v 0.5395 q 0.19534,-0.31936 0.46819,-0.47129 0.27285,-0.15193 0.64802,-0.15193 0.37827,0 0.64182,0.19224 0.26665,0.19223 0.39378,0.5581 z" />
        <path
           inkscape:connector-curvature="0"
           id="path1224"
           style="font-size:6.3499999px;stroke-width:0.26458332"
           d="m 225.19867,132.59431 q -0.45889,0 -0.72554,0.35967 -0.26665,0.35657 -0.26665,0.97978 0,0.62322 0.26355,0.98289 0.26665,0.35657 0.72864,0.35657 0.45579,0 0.72244,-0.35967 0.26665,-0.35967 0.26665,-0.97979 0,-0.61701 -0.26665,-0.97668 -0.26665,-0.36277 -0.72244,-0.36277 z m 0,-0.48369 q 0.74414,0 1.16892,0.48369 0.42478,0.48369 0.42478,1.33945 0,0.85267 -0.42478,1.33946 -0.42478,0.48369 -1.16892,0.48369 -0.74724,0 -1.17202,-0.48369 -0.42168,-0.48679 -0.42168,-1.33946 0,-0.85576 0.42168,-1.33945 0.42478,-0.48369 1.17202,-0.48369 z" />
        <path
           inkscape:connector-curvature="0"
           id="path1226"
           style="font-size:6.3499999px;stroke-width:0.26458332"
           d="m 230.02008,132.72144 v -1.87896 h 0.57051 v 4.82451 h -0.57051 v -0.5209 q -0.17983,0.31006 -0.45578,0.46199 -0.27286,0.14883 -0.65733,0.14883 -0.62942,0 -1.02629,-0.5023 -0.39378,-0.50229 -0.39378,-1.32085 0,-0.81855 0.39378,-1.32084 0.39687,-0.5023 1.02629,-0.5023 0.38447,0 0.65733,0.15193 0.27595,0.14883 0.45578,0.45889 z m -1.94406,1.21232 q 0,0.62942 0.25734,0.98909 0.26045,0.35657 0.71314,0.35657 0.45268,0 0.71313,-0.35657 0.26045,-0.35967 0.26045,-0.98909 0,-0.62941 -0.26045,-0.98598 -0.26045,-0.35967 -0.71313,-0.35967 -0.45269,0 -0.71314,0.35967 -0.25734,0.35657 -0.25734,0.98598 z" />
        <path
           inkscape:connector-curvature="0"
           id="path1228"
           style="font-size:6.3499999px;stroke-width:0.26458332"
           d="m 233.34391,133.92136 q -0.69143,0 -0.95808,0.15813 -0.26665,0.15813 -0.26665,0.5395 0,0.30386 0.19844,0.4837 0.20153,0.17673 0.5457,0.17673 0.47439,0 0.75964,-0.33486 0.28836,-0.33797 0.28836,-0.89607 v -0.12713 z m 1.13792,-0.23564 v 1.98127 h -0.57051 v -0.5271 q -0.19534,0.31626 -0.48679,0.46819 -0.29146,0.14883 -0.71314,0.14883 -0.5333,0 -0.84956,-0.29766 -0.31316,-0.30075 -0.31316,-0.80305 0,-0.58601 0.39068,-0.88367 0.39377,-0.29765 1.17202,-0.29765 h 0.79995 v -0.0558 q 0,-0.39378 -0.26045,-0.60772 -0.25735,-0.21704 -0.72554,-0.21704 -0.29765,0 -0.57981,0.0713 -0.28215,0.0713 -0.5426,0.21394 v -0.5271 q 0.31316,-0.12093 0.60771,-0.17984 0.29456,-0.062 0.57361,-0.062 0.75344,0 1.12552,0.39067 0.37207,0.39068 0.37207,1.18443 z" />
        <path
           inkscape:connector-curvature="0"
           id="path1230"
           style="font-size:6.3499999px;stroke-width:0.26458332"
           d="m 235.66005,130.84248 h 0.57051 v 4.82451 h -0.57051 z" />
        <path
           inkscape:connector-curvature="0"
           id="path1232"
           style="font-size:6.3499999px;stroke-width:0.26458332"
           d="m 237.56691,134.87944 h 0.65422 v 0.78755 h -0.65422 z m 0,-2.49597 h 0.65422 v 0.78755 h -0.65422 z" />
        <path
           inkscape:connector-curvature="0"
           id="path1234"
           style="font-size:6.3499999px;stroke-width:0.26458332"
           d="m 243.3464,130.84248 v 0.47439 h -0.5457 q -0.30696,0 -0.42788,0.12402 -0.11783,0.12403 -0.11783,0.44649 v 0.30696 h 0.93948 v 0.44338 h -0.93948 v 3.02927 h -0.5736 v -3.02927 h -0.54571 v -0.44338 h 0.54571 v -0.24185 q 0,-0.57981 0.26975,-0.84336 0.26975,-0.26665 0.85576,-0.26665 z" />
        <path
           inkscape:connector-curvature="0"
           id="path1236"
           style="font-size:6.3499999px;stroke-width:0.26458332"
           d="m 243.76188,134.29653 v -2.10219 h 0.57051 v 2.08049 q 0,0.49299 0.19223,0.74104 0.19224,0.24495 0.57671,0.24495 0.46199,0 0.72864,-0.29456 0.26975,-0.29456 0.26975,-0.80305 v -1.96887 h 0.57051 v 3.47265 h -0.57051 v -0.5333 q -0.20774,0.31626 -0.48369,0.47129 -0.27285,0.15193 -0.63562,0.15193 -0.59841,0 -0.90847,-0.37207 -0.31006,-0.37207 -0.31006,-1.08831 z m 1.43557,-2.18591 z" />
        <path
           inkscape:connector-curvature="0"
           id="path1238"
           style="font-size:6.3499999px;stroke-width:0.26458332"
           d="m 248.41586,131.20835 v 0.98599 h 1.17512 v 0.44338 h -1.17512 v 1.88516 q 0,0.42478 0.11472,0.5457 0.11782,0.12092 0.47439,0.12092 h 0.58601 v 0.47749 h -0.58601 q -0.66042,0 -0.91157,-0.24494 -0.25115,-0.24805 -0.25115,-0.89917 v -1.88516 h -0.41858 v -0.44338 h 0.41858 v -0.98599 z" />
        <path
           inkscape:connector-curvature="0"
           id="path1240"
           style="font-size:6.3499999px;stroke-width:0.26458332"
           d="m 250.28551,134.29653 v -2.10219 h 0.57051 v 2.08049 q 0,0.49299 0.19224,0.74104 0.19223,0.24495 0.5767,0.24495 0.46199,0 0.72864,-0.29456 0.26975,-0.29456 0.26975,-0.80305 v -1.96887 h 0.57051 v 3.47265 h -0.57051 v -0.5333 q -0.20774,0.31626 -0.48369,0.47129 -0.27285,0.15193 -0.63562,0.15193 -0.59841,0 -0.90847,-0.37207 -0.31006,-0.37207 -0.31006,-1.08831 z m 1.43557,-2.18591 z" />
        <path
           inkscape:connector-curvature="0"
           id="path1242"
           style="font-size:6.3499999px;stroke-width:0.26458332"
           d="m 256.38746,132.72764 q -0.0961,-0.0558 -0.21083,-0.0806 -0.11163,-0.0279 -0.24805,-0.0279 -0.48369,0 -0.74414,0.31626 -0.25735,0.31316 -0.25735,0.90227 v 1.82934 h -0.57361 v -3.47265 h 0.57361 v 0.5395 q 0.17983,-0.31626 0.46819,-0.46819 0.28835,-0.15503 0.70073,-0.15503 0.0589,0 0.13022,0.009 0.0713,0.006 0.15813,0.0217 z" />
        <path
           inkscape:connector-curvature="0"
           id="path1244"
           style="font-size:6.3499999px;stroke-width:0.26458332"
           d="m 256.99208,132.19434 h 0.57051 v 3.47265 h -0.57051 z m 0,-1.35186 h 0.57051 v 0.72244 h -0.57051 z" />
        <path
           inkscape:connector-curvature="0"
           id="path1246"
           style="font-size:6.3499999px;stroke-width:0.26458332"
           d="m 259.31752,131.20835 v 0.98599 h 1.17512 v 0.44338 h -1.17512 v 1.88516 q 0,0.42478 0.11472,0.5457 0.11782,0.12092 0.47439,0.12092 h 0.58601 v 0.47749 h -0.58601 q -0.66042,0 -0.91157,-0.24494 -0.25115,-0.24805 -0.25115,-0.89917 v -1.88516 h -0.41858 v -0.44338 h 0.41858 v -0.98599 z" />
        <path
           inkscape:connector-curvature="0"
           id="path1248"
           style="font-size:6.3499999px;stroke-width:0.26458332"
           d="m 262.69096,135.98945 q -0.24185,0.62012 -0.47129,0.80926 -0.22945,0.18913 -0.61392,0.18913 h -0.45578 v -0.47749 h 0.33486 q 0.23564,0 0.36587,-0.11162 0.13022,-0.11162 0.28835,-0.5271 l 0.10232,-0.26045 -1.40456,-3.41684 h 0.60461 l 1.08521,2.71611 1.0852,-2.71611 h 0.60462 z" />
      </g>
    </g>
    <g
       id="deontic"
       class="modal"
       inkscape:label="deontic">
      <rect
         y="131.05833"
         x="127.5723"
         height="2.3163805"
         width="2.5888958"
         id="rect1379-1"
         style="opacity:0.97000002;fill:#c40233;fill-opacity:1;stroke:#c40233;stroke-width:0.45965612;stroke-miterlimit:4;stroke-dasharray:none;stroke-dashoffset:0;stroke-opacity:1;paint-order:stroke markers fill" />
      <g
         transform="matrix(0.64923175,0,0,0.64923175,49.074167,51.012475)"
         id="text1383-2"
         style="font-style:normal;font-weight:normal;font-size:6.3499999px;line-height:1.25;font-family:sans-serif;letter-spacing:0px;word-spacing:0px;fill:#000000;fill-opacity:1;stroke:none;stroke-width:0.26458332"
         aria-label="Modal: deontic">
        <path
           inkscape:connector-curvature="0"
           id="path1129"
           style="font-size:6.3499999px;stroke-width:0.26458332"
           d="m 127.91147,122.44176 h 0.93328 l 1.18132,3.15019 1.18753,-3.15019 h 0.93327 v 4.62917 h -0.61081 v -4.06487 l -1.19373,3.175 h -0.62942 l -1.19372,-3.175 v 4.06487 h -0.60772 z" />
        <path
           inkscape:connector-curvature="0"
           id="path1131"
           style="font-size:6.3499999px;stroke-width:0.26458332"
           d="m 134.71416,123.99825 q -0.45889,0 -0.72554,0.35967 -0.26665,0.35657 -0.26665,0.97978 0,0.62322 0.26355,0.98289 0.26665,0.35657 0.72864,0.35657 0.45578,0 0.72243,-0.35967 0.26665,-0.35967 0.26665,-0.97979 0,-0.61701 -0.26665,-0.97668 -0.26665,-0.36277 -0.72243,-0.36277 z m 0,-0.48369 q 0.74414,0 1.16892,0.48369 0.42478,0.48369 0.42478,1.33945 0,0.85266 -0.42478,1.33946 -0.42478,0.48369 -1.16892,0.48369 -0.74724,0 -1.17202,-0.48369 -0.42168,-0.4868 -0.42168,-1.33946 0,-0.85576 0.42168,-1.33945 0.42478,-0.48369 1.17202,-0.48369 z" />
        <path
           inkscape:connector-curvature="0"
           id="path1133"
           style="font-size:6.3499999px;stroke-width:0.26458332"
           d="m 139.53557,124.12537 v -1.87895 h 0.57051 v 4.82451 h -0.57051 v -0.5209 q -0.17984,0.31006 -0.45579,0.46199 -0.27285,0.14883 -0.65732,0.14883 -0.62942,0 -1.0263,-0.5023 -0.39377,-0.50229 -0.39377,-1.32085 0,-0.81855 0.39377,-1.32085 0.39688,-0.50229 1.0263,-0.50229 0.38447,0 0.65732,0.15193 0.27595,0.14883 0.45579,0.45888 z m -1.94407,1.21233 q 0,0.62942 0.25735,0.98909 0.26045,0.35657 0.71313,0.35657 0.45269,0 0.71314,-0.35657 0.26045,-0.35967 0.26045,-0.98909 0,-0.62942 -0.26045,-0.98598 -0.26045,-0.35967 -0.71314,-0.35967 -0.45268,0 -0.71313,0.35967 -0.25735,0.35656 -0.25735,0.98598 z" />
        <path
           inkscape:connector-curvature="0"
           id="path1135"
           style="font-size:6.3499999px;stroke-width:0.26458332"
           d="m 142.8594,125.3253 q -0.69143,0 -0.95808,0.15813 -0.26666,0.15813 -0.26666,0.5395 0,0.30386 0.19844,0.48369 0.20154,0.17674 0.54571,0.17674 0.47439,0 0.75964,-0.33487 0.28835,-0.33796 0.28835,-0.89607 v -0.12712 z m 1.13791,-0.23564 v 1.98127 h -0.57051 v -0.5271 q -0.19533,0.31626 -0.48679,0.46819 -0.29145,0.14883 -0.71313,0.14883 -0.5333,0 -0.84956,-0.29766 -0.31316,-0.30076 -0.31316,-0.80305 0,-0.58601 0.39067,-0.88367 0.39378,-0.29765 1.17202,-0.29765 h 0.79995 v -0.0558 q 0,-0.39378 -0.26045,-0.60772 -0.25734,-0.21704 -0.72553,-0.21704 -0.29766,0 -0.57981,0.0713 -0.28216,0.0713 -0.5426,0.21394 v -0.5271 q 0.31315,-0.12092 0.60771,-0.17983 0.29456,-0.062 0.57361,-0.062 0.75344,0 1.12551,0.39067 0.37207,0.39068 0.37207,1.18443 z" />
        <path
           inkscape:connector-curvature="0"
           id="path1137"
           style="font-size:6.3499999px;stroke-width:0.26458332"
           d="m 145.17553,122.24642 h 0.57051 v 4.82451 h -0.57051 z" />
        <path
           inkscape:connector-curvature="0"
           id="path1139"
           style="font-size:6.3499999px;stroke-width:0.26458332"
           d="m 147.08239,126.28338 h 0.65423 v 0.78755 h -0.65423 z m 0,-2.49597 h 0.65423 v 0.78755 h -0.65423 z" />
        <path
           inkscape:connector-curvature="0"
           id="path1141"
           style="font-size:6.3499999px;stroke-width:0.26458332"
           d="m 153.38899,124.12537 v -1.87895 h 0.5705 v 4.82451 h -0.5705 v -0.5209 q -0.17984,0.31006 -0.45579,0.46199 -0.27285,0.14883 -0.65732,0.14883 -0.62942,0 -1.0263,-0.5023 -0.39377,-0.50229 -0.39377,-1.32085 0,-0.81855 0.39377,-1.32085 0.39688,-0.50229 1.0263,-0.50229 0.38447,0 0.65732,0.15193 0.27595,0.14883 0.45579,0.45888 z m -1.94407,1.21233 q 0,0.62942 0.25735,0.98909 0.26045,0.35657 0.71313,0.35657 0.45269,0 0.71314,-0.35657 0.26045,-0.35967 0.26045,-0.98909 0,-0.62942 -0.26045,-0.98598 -0.26045,-0.35967 -0.71314,-0.35967 -0.45268,0 -0.71313,0.35967 -0.25735,0.35656 -0.25735,0.98598 z" />
        <path
           inkscape:connector-curvature="0"
           id="path1143"
           style="font-size:6.3499999px;stroke-width:0.26458332"
           d="m 158.10498,125.19198 v 0.27905 h -2.6231 q 0.0372,0.58911 0.35347,0.89917 0.31936,0.30696 0.88677,0.30696 0.32866,0 0.63562,-0.0806 0.31006,-0.0806 0.61391,-0.24184 v 0.5395 q -0.30696,0.13022 -0.62942,0.19843 -0.32246,0.0682 -0.65422,0.0682 -0.83096,0 -1.31775,-0.48369 -0.48369,-0.4837 -0.48369,-1.30845 0,-0.85266 0.45889,-1.35186 0.46198,-0.50229 1.24333,-0.50229 0.70073,0 1.10691,0.45268 0.40928,0.44959 0.40928,1.22474 z m -0.57051,-0.16744 q -0.006,-0.46818 -0.26355,-0.74724 -0.25425,-0.27905 -0.67593,-0.27905 -0.47749,0 -0.76584,0.26975 -0.28526,0.26975 -0.32866,0.75964 z" />
        <path
           inkscape:connector-curvature="0"
           id="path1145"
           style="font-size:6.3499999px;stroke-width:0.26458332"
           d="m 160.38701,123.99825 q -0.45889,0 -0.72554,0.35967 -0.26665,0.35657 -0.26665,0.97978 0,0.62322 0.26355,0.98289 0.26665,0.35657 0.72864,0.35657 0.45579,0 0.72244,-0.35967 0.26665,-0.35967 0.26665,-0.97979 0,-0.61701 -0.26665,-0.97668 -0.26665,-0.36277 -0.72244,-0.36277 z m 0,-0.48369 q 0.74414,0 1.16892,0.48369 0.42478,0.48369 0.42478,1.33945 0,0.85266 -0.42478,1.33946 -0.42478,0.48369 -1.16892,0.48369 -0.74724,0 -1.17202,-0.48369 -0.42168,-0.4868 -0.42168,-1.33946 0,-0.85576 0.42168,-1.33945 0.42478,-0.48369 1.17202,-0.48369 z" />
        <path
           inkscape:connector-curvature="0"
           id="path1147"
           style="font-size:6.3499999px;stroke-width:0.26458332"
           d="m 165.80993,124.97493 v 2.096 h -0.5705 v -2.07739 q 0,-0.493 -0.19224,-0.73794 -0.19224,-0.24495 -0.57671,-0.24495 -0.46199,0 -0.72864,0.29456 -0.26665,0.29455 -0.26665,0.80305 v 1.96267 h -0.57361 v -3.47266 h 0.57361 v 0.53951 q 0.20464,-0.31316 0.48059,-0.46819 0.27906,-0.15503 0.64182,-0.15503 0.59842,0 0.90538,0.37207 0.30695,0.36897 0.30695,1.0883 z" />
        <path
           inkscape:connector-curvature="0"
           id="path1149"
           style="font-size:6.3499999px;stroke-width:0.26458332"
           d="m 167.51836,122.61229 v 0.98598 h 1.17512 v 0.44339 h -1.17512 v 1.88515 q 0,0.42478 0.11472,0.54571 0.11782,0.12092 0.47439,0.12092 h 0.58601 v 0.47749 h -0.58601 q -0.66043,0 -0.91157,-0.24495 -0.25115,-0.24804 -0.25115,-0.89917 v -1.88515 h -0.41858 v -0.44339 h 0.41858 v -0.98598 z" />
        <path
           inkscape:connector-curvature="0"
           id="path1151"
           style="font-size:6.3499999px;stroke-width:0.26458332"
           d="m 169.44692,123.59827 h 0.57051 v 3.47266 h -0.57051 z m 0,-1.35185 h 0.57051 v 0.72244 h -0.57051 z" />
        <path
           inkscape:connector-curvature="0"
           id="path1153"
           style="font-size:6.3499999px;stroke-width:0.26458332"
           d="m 173.70712,123.7316 v 0.5333 q -0.24184,-0.13332 -0.48679,-0.19844 -0.24184,-0.0682 -0.48989,-0.0682 -0.55501,0 -0.86196,0.35347 -0.30696,0.35036 -0.30696,0.98598 0,0.63562 0.30696,0.98909 0.30695,0.35037 0.86196,0.35037 0.24805,0 0.48989,-0.0651 0.24495,-0.0682 0.48679,-0.20153 v 0.5271 q -0.23874,0.11162 -0.49609,0.16743 -0.25425,0.0558 -0.5426,0.0558 -0.78445,0 -1.24644,-0.493 -0.46199,-0.49299 -0.46199,-1.33015 0,-0.84956 0.46509,-1.33635 0.46819,-0.48679 1.28054,-0.48679 0.26355,0 0.5147,0.0558 0.25115,0.0527 0.48679,0.16123 z" />
      </g>
    </g>
    <g
       id="dynamic"
       inkscape:label="dynamic"
       class="modal">
      <rect
         y="136.58014"
         x="127.5723"
         height="2.3163805"
         width="2.588896"
         id="rect1379-1-3"
         style="opacity:0.97000002;fill:#6a0dad;fill-opacity:1;stroke:#6a0dad;stroke-width:0.45965612;stroke-miterlimit:4;stroke-dasharray:none;stroke-dashoffset:0;stroke-opacity:1;paint-order:stroke markers fill" />
      <g
         transform="matrix(0.64923175,0,0,0.64923175,49.074167,51.012475)"
         id="text1383-2-0"
         style="font-style:normal;font-weight:normal;font-size:6.3499999px;line-height:1.25;font-family:sans-serif;letter-spacing:0px;word-spacing:0px;fill:#000000;fill-opacity:1;stroke:none;stroke-width:0.26458332"
         aria-label="Modal: dynamic">
        <path
           inkscape:connector-curvature="0"
           id="path1156"
           style="font-size:6.3499999px;stroke-width:0.26458332"
           d="m 127.91147,130.94689 h 0.93328 l 1.18132,3.1502 1.18753,-3.1502 h 0.93327 v 4.62918 h -0.61081 v -4.06487 l -1.19373,3.175 h -0.62942 l -1.19372,-3.175 v 4.06487 h -0.60772 z" />
        <path
           inkscape:connector-curvature="0"
           id="path1158"
           style="font-size:6.3499999px;stroke-width:0.26458332"
           d="m 134.71416,132.50338 q -0.45889,0 -0.72554,0.35967 -0.26665,0.35657 -0.26665,0.97979 0,0.62322 0.26355,0.98288 0.26665,0.35657 0.72864,0.35657 0.45578,0 0.72243,-0.35967 0.26665,-0.35967 0.26665,-0.97978 0,-0.61702 -0.26665,-0.97669 -0.26665,-0.36277 -0.72243,-0.36277 z m 0,-0.48369 q 0.74414,0 1.16892,0.48369 0.42478,0.4837 0.42478,1.33946 0,0.85266 -0.42478,1.33945 -0.42478,0.48369 -1.16892,0.48369 -0.74724,0 -1.17202,-0.48369 -0.42168,-0.48679 -0.42168,-1.33945 0,-0.85576 0.42168,-1.33946 0.42478,-0.48369 1.17202,-0.48369 z" />
        <path
           inkscape:connector-curvature="0"
           id="path1160"
           style="font-size:6.3499999px;stroke-width:0.26458332"
           d="m 139.53557,132.63051 v -1.87896 h 0.57051 v 4.82452 h -0.57051 v -0.5209 q -0.17984,0.31006 -0.45579,0.46198 -0.27285,0.14883 -0.65732,0.14883 -0.62942,0 -1.0263,-0.50229 -0.39377,-0.5023 -0.39377,-1.32085 0,-0.81856 0.39377,-1.32085 0.39688,-0.5023 1.0263,-0.5023 0.38447,0 0.65732,0.15193 0.27595,0.14883 0.45579,0.45889 z m -1.94407,1.21233 q 0,0.62942 0.25735,0.98908 0.26045,0.35657 0.71313,0.35657 0.45269,0 0.71314,-0.35657 0.26045,-0.35966 0.26045,-0.98908 0,-0.62942 -0.26045,-0.98599 -0.26045,-0.35967 -0.71314,-0.35967 -0.45268,0 -0.71313,0.35967 -0.25735,0.35657 -0.25735,0.98599 z" />
        <path
           inkscape:connector-curvature="0"
           id="path1162"
           style="font-size:6.3499999px;stroke-width:0.26458332"
           d="m 142.8594,133.83044 q -0.69143,0 -0.95808,0.15813 -0.26666,0.15812 -0.26666,0.5395 0,0.30385 0.19844,0.48369 0.20154,0.17673 0.54571,0.17673 0.47439,0 0.75964,-0.33486 0.28835,-0.33797 0.28835,-0.89607 v -0.12712 z m 1.13791,-0.23565 v 1.98128 h -0.57051 v -0.5271 q -0.19533,0.31626 -0.48679,0.46818 -0.29145,0.14883 -0.71313,0.14883 -0.5333,0 -0.84956,-0.29765 -0.31316,-0.30076 -0.31316,-0.80306 0,-0.58601 0.39067,-0.88366 0.39378,-0.29766 1.17202,-0.29766 h 0.79995 v -0.0558 q 0,-0.39377 -0.26045,-0.60771 -0.25734,-0.21705 -0.72553,-0.21705 -0.29766,0 -0.57981,0.0713 -0.28216,0.0713 -0.5426,0.21394 v -0.5271 q 0.31315,-0.12092 0.60771,-0.17984 0.29456,-0.062 0.57361,-0.062 0.75344,0 1.12551,0.39068 0.37207,0.39067 0.37207,1.18442 z" />
        <path
           inkscape:connector-curvature="0"
           id="path1164"
           style="font-size:6.3499999px;stroke-width:0.26458332"
           d="m 145.17553,130.75155 h 0.57051 v 4.82452 h -0.57051 z" />
        <path
           inkscape:connector-curvature="0"
           id="path1166"
           style="font-size:6.3499999px;stroke-width:0.26458332"
           d="m 147.08239,134.78852 h 0.65423 v 0.78755 h -0.65423 z m 0,-2.49598 h 0.65423 v 0.78755 h -0.65423 z" />
        <path
           inkscape:connector-curvature="0"
           id="path1168"
           style="font-size:6.3499999px;stroke-width:0.26458332"
           d="m 153.38899,132.63051 v -1.87896 h 0.5705 v 4.82452 h -0.5705 v -0.5209 q -0.17984,0.31006 -0.45579,0.46198 -0.27285,0.14883 -0.65732,0.14883 -0.62942,0 -1.0263,-0.50229 -0.39377,-0.5023 -0.39377,-1.32085 0,-0.81856 0.39377,-1.32085 0.39688,-0.5023 1.0263,-0.5023 0.38447,0 0.65732,0.15193 0.27595,0.14883 0.45579,0.45889 z m -1.94407,1.21233 q 0,0.62942 0.25735,0.98908 0.26045,0.35657 0.71313,0.35657 0.45269,0 0.71314,-0.35657 0.26045,-0.35966 0.26045,-0.98908 0,-0.62942 -0.26045,-0.98599 -0.26045,-0.35967 -0.71314,-0.35967 -0.45268,0 -0.71313,0.35967 -0.25735,0.35657 -0.25735,0.98599 z" />
        <path
           inkscape:connector-curvature="0"
           id="path1170"
           style="font-size:6.3499999px;stroke-width:0.26458332"
           d="m 156.57949,135.89853 q -0.24185,0.62011 -0.47129,0.80925 -0.22944,0.18913 -0.61392,0.18913 h -0.45578 v -0.47749 h 0.33486 q 0.23565,0 0.36587,-0.11162 0.13023,-0.11162 0.28836,-0.5271 l 0.10231,-0.26045 -1.40456,-3.41684 h 0.60461 l 1.08521,2.71611 1.0852,-2.71611 h 0.60462 z" />
        <path
           inkscape:connector-curvature="0"
           id="path1172"
           style="font-size:6.3499999px;stroke-width:0.26458332"
           d="m 161.77917,133.48007 v 2.096 h -0.57051 v -2.0774 q 0,-0.49299 -0.19223,-0.73794 -0.19224,-0.24494 -0.57671,-0.24494 -0.46199,0 -0.72864,0.29455 -0.26665,0.29456 -0.26665,0.80305 v 1.96268 h -0.57361 v -3.47266 h 0.57361 v 0.5395 q 0.20464,-0.31316 0.48059,-0.46819 0.27905,-0.15503 0.64182,-0.15503 0.59842,0 0.90537,0.37207 0.30696,0.36897 0.30696,1.08831 z" />
        <path
           inkscape:connector-curvature="0"
           id="path1174"
           style="font-size:6.3499999px;stroke-width:0.26458332"
           d="m 164.50149,133.83044 q -0.69143,0 -0.95808,0.15813 -0.26666,0.15812 -0.26666,0.5395 0,0.30385 0.19844,0.48369 0.20154,0.17673 0.54571,0.17673 0.47439,0 0.75964,-0.33486 0.28835,-0.33797 0.28835,-0.89607 v -0.12712 z m 1.13791,-0.23565 v 1.98128 h -0.57051 v -0.5271 q -0.19533,0.31626 -0.48679,0.46818 -0.29145,0.14883 -0.71313,0.14883 -0.5333,0 -0.84956,-0.29765 -0.31316,-0.30076 -0.31316,-0.80306 0,-0.58601 0.39067,-0.88366 0.39378,-0.29766 1.17202,-0.29766 h 0.79995 v -0.0558 q 0,-0.39377 -0.26045,-0.60771 -0.25734,-0.21705 -0.72553,-0.21705 -0.29766,0 -0.57981,0.0713 -0.28216,0.0713 -0.54261,0.21394 v -0.5271 q 0.31316,-0.12092 0.60772,-0.17984 0.29456,-0.062 0.57361,-0.062 0.75344,0 1.12551,0.39068 0.37207,0.39067 0.37207,1.18442 z" />
        <path
           inkscape:connector-curvature="0"
           id="path1176"
           style="font-size:6.3499999px;stroke-width:0.26458332"
           d="m 169.52134,132.77003 q 0.21394,-0.38447 0.51159,-0.5674 0.29766,-0.18294 0.70073,-0.18294 0.54261,0 0.83716,0.38138 0.29456,0.37827 0.29456,1.079 v 2.096 h -0.57361 v -2.0774 q 0,-0.49919 -0.17673,-0.74104 -0.17674,-0.24184 -0.53951,-0.24184 -0.44338,0 -0.70073,0.29455 -0.25735,0.29456 -0.25735,0.80305 v 1.96268 h -0.5736 v -2.0774 q 0,-0.50229 -0.17674,-0.74104 -0.17673,-0.24184 -0.5457,-0.24184 -0.43718,0 -0.69453,0.29765 -0.25735,0.29456 -0.25735,0.79995 v 1.96268 h -0.57361 v -3.47266 h 0.57361 v 0.5395 q 0.19534,-0.31936 0.46819,-0.47129 0.27285,-0.15193 0.64802,-0.15193 0.37827,0 0.64182,0.19224 0.26665,0.19224 0.39378,0.5581 z" />
        <path
           inkscape:connector-curvature="0"
           id="path1178"
           style="font-size:6.3499999px;stroke-width:0.26458332"
           d="m 173.00639,132.10341 h 0.57051 v 3.47266 h -0.57051 z m 0,-1.35186 h 0.57051 v 0.72244 h -0.57051 z" />
        <path
           inkscape:connector-curvature="0"
           id="path1180"
           style="font-size:6.3499999px;stroke-width:0.26458332"
           d="m 177.2666,132.23673 v 0.5333 q -0.24185,-0.13332 -0.48679,-0.19843 -0.24185,-0.0682 -0.4899,-0.0682 -0.555,0 -0.86196,0.35347 -0.30696,0.35037 -0.30696,0.98599 0,0.63562 0.30696,0.98908 0.30696,0.35037 0.86196,0.35037 0.24805,0 0.4899,-0.0651 0.24494,-0.0682 0.48679,-0.20154 v 0.5271 q -0.23875,0.11162 -0.4961,0.16743 -0.25424,0.0558 -0.5426,0.0558 -0.78445,0 -1.24643,-0.49299 -0.46199,-0.49299 -0.46199,-1.33015 0,-0.84956 0.46509,-1.33635 0.46819,-0.4868 1.28054,-0.4868 0.26355,0 0.5147,0.0558 0.25114,0.0527 0.48679,0.16123 z" />
      </g>
    </g>
    <g
       id="premodal"
       inkscape:label="premodal"
       transform="translate(0,-2.1166667)">
      <rect
         y="133.40518"
         x="177.05731"
         height="2.3163805"
         width="2.588896"
         id="rect1379-1-5"
         style="opacity:0.97000002;fill:#000000;fill-opacity:1;stroke:#333333;stroke-width:0.45965612;stroke-miterlimit:4;stroke-dasharray:none;stroke-dashoffset:0;stroke-opacity:1;paint-order:stroke markers fill" />
      <g
         transform="matrix(0.64923175,0,0,0.64923175,132.15357,47.837473)"
         id="text1383-2-2"
         style="font-style:normal;font-weight:normal;font-size:6.3499999px;line-height:1.25;font-family:sans-serif;letter-spacing:0px;word-spacing:0px;fill:#000000;fill-opacity:1;stroke:none;stroke-width:0.26458332"
         aria-label="Premodal">
        <text
           id="text1559"
           y="135.80618"
           x="74.842934"
           style="font-style:normal;font-weight:normal;font-size:6.52052736px;line-height:1.25;font-family:sans-serif;letter-spacing:0px;word-spacing:0px;fill:#000000;fill-opacity:1;stroke:none;stroke-width:0.10782642"
           xml:space="preserve"><tspan
             id="tspan1561"
             style="font-size:6.52052736px;stroke-width:0.10782642"
             y="135.80618"
             x="74.842934"
             sodipodi:role="line">Premodal</tspan></text>
      </g>
      <rect
         y="144.1339"
         x="177.05731"
         height="2.3163805"
         width="2.588896"
         id="rect1379-1-5-3"
         style="opacity:0.97000002;fill:#a9a9a9;fill-opacity:1;stroke:#a9a9a9;stroke-width:0.45965612;stroke-miterlimit:4;stroke-dasharray:none;stroke-dashoffset:0;stroke-opacity:1;paint-order:stroke markers fill" />
      <g
         transform="matrix(0.64923175,0,0,0.64923175,132.15356,58.566195)"
         id="text1383-2-2-6"
         style="font-style:normal;font-weight:normal;font-size:6.3499999px;line-height:1.25;font-family:sans-serif;letter-spacing:0px;word-spacing:0px;fill:#000000;fill-opacity:1;stroke:none;stroke-width:0.26458332"
         aria-label="Premodal">
        <text
           id="text1559-7"
           y="135.80618"
           x="74.842934"
           style="font-style:normal;font-weight:normal;font-size:6.52052736px;line-height:1.25;font-family:sans-serif;letter-spacing:0px;word-spacing:0px;fill:#000000;fill-opacity:1;stroke:none;stroke-width:0.10782642"
           xml:space="preserve"><tspan
             id="tspan1561-5"
             style="font-size:6.52052736px;stroke-width:0.10782642"
             y="135.80618"
             x="74.842934"
             sodipodi:role="line">Not modal</tspan></text>
      </g>
    </g>
    <text
       xml:space="preserve"
       style="font-style:normal;font-weight:normal;font-size:6.3499999px;line-height:1.25;font-family:sans-serif;letter-spacing:0px;word-spacing:0px;fill:#000000;fill-opacity:1;stroke:none;stroke-width:0.26458332"
       x="182.32204"
       y="124.96484"
       id="text902"><tspan
         sodipodi:role="line"
         id="tspan900"
         x="182.32204"
         y="130.5831"
         style="stroke-width:0.26458332" /></text>
    <text
       xml:space="preserve"
       style="font-style:normal;font-weight:normal;font-size:4.23333311px;line-height:1.25;font-family:sans-serif;letter-spacing:0px;word-spacing:0px;fill:#000000;fill-opacity:1;stroke:none;stroke-width:0.26458332"
       x="99.817169"
       y="152.46648"
       id="text906"><tspan
         sodipodi:role="line"
         id="tspan904"
         x="99.817169"
         y="156.21199"
         style="stroke-width:0.26458332" /></text>
    <text
       xml:space="preserve"
       style="font-style:normal;font-weight:normal;font-size:4.23333311px;line-height:1.25;font-family:sans-serif;letter-spacing:0px;word-spacing:0px;fill:#000000;fill-opacity:1;stroke:none;stroke-width:0.26458332"
       x="149.71532"
       y="152.46648"
       id="text910"><tspan
         sodipodi:role="line"
         id="tspan908"
         x="149.71532"
         y="156.21199"
         style="stroke-width:0.26458332" /></text>
    <text
       xml:space="preserve"
       style="font-style:normal;font-weight:normal;font-size:4.93888855px;line-height:1.25;font-family:sans-serif;letter-spacing:0px;word-spacing:0px;fill:#000000;fill-opacity:1;stroke:none;stroke-width:0.26458332"
       x="312.95029"
       y="143.10623"
       id="text998"><tspan
         sodipodi:role="line"
         id="tspan996"
         x="312.95029"
         y="143.10623"
         style="font-size:4.23333311px;stroke-width:0.26458332">Hypothetical relation</tspan></text>
    <text
       xml:space="preserve"
       style="font-style:normal;font-weight:normal;font-size:4.93888855px;line-height:1.25;font-family:sans-serif;letter-spacing:0px;word-spacing:0px;fill:#000000;fill-opacity:1;stroke:none;stroke-width:0.26458332"
       x="313.08707"
       y="135.99896"
       id="text998-3"><tspan
         sodipodi:role="line"
         id="tspan996-6"
         x="313.08707"
         y="135.99896"
         style="font-size:4.23333311px;stroke-width:0.26458332">Semantic relation</tspan></text>
    <path
       style="fill:none;stroke:#000000;stroke-width:1;stroke-linecap:butt;stroke-linejoin:miter;stroke-miterlimit:4;stroke-dasharray:none;stroke-opacity:1"
       d="m 117.38323,86.009205 c 0,0 2.83578,0 2.83578,0"
       id="path3309"
       inkscape:connector-curvature="0"
       inkscape:path-effect="#path-effect3311"
       inkscape:original-d="m 117.38323,86.009205 h 2.83578"
       inkscape:transform-center-x="490.53032"
       inkscape:transform-center-y="-47.90538"
       transform="matrix(4.1941728,0,0,1,-194.79938,48.585973)" />
    <path
       style="fill:none;stroke:#000000;stroke-width:1;stroke-linecap:butt;stroke-linejoin:miter;stroke-miterlimit:4;stroke-dasharray:1.00000003, 1.00000003;stroke-dashoffset:0;stroke-opacity:1"
       d="m 117.38323,86.009205 c 0,0 2.83578,0 2.83578,0"
       id="path3309-5"
       inkscape:connector-curvature="0"
       inkscape:path-effect="#path-effect3311-7"
       inkscape:original-d="m 117.38323,86.009205 h 2.83578"
       inkscape:transform-center-x="490.53032"
       inkscape:transform-center-y="-47.90538"
       transform="matrix(4.1941729,0,0,1,-194.79904,55.736517)" />
    <rect
       style="opacity:1;fill:none;fill-opacity:1;stroke:#000000;stroke-width:0.46580383;stroke-miterlimit:4;stroke-dasharray:0.46580387, 0.46580387;stroke-dashoffset:0;stroke-opacity:1;paint-order:fill markers stroke"
       id="rect3352"
       width="3.4281895"
       height="3.5870652"
       x="233.69958"
       y="136.43695" />
    <text
       xml:space="preserve"
       style="font-style:normal;font-weight:normal;font-size:4.23333311px;line-height:1.25;font-family:sans-serif;letter-spacing:0px;word-spacing:0px;fill:#000000;fill-opacity:1;stroke:none;stroke-width:0.26458332"
       x="238.35762"
       y="139.49937"
       id="text3358"><tspan
         sodipodi:role="line"
         id="tspan3356"
         x="238.35762"
         y="139.49937"
         style="font-size:4.23333311px;stroke-width:0.26458332">Likely modal <tspan
   style="font-style:italic;font-variant:normal;font-weight:normal;font-stretch:normal;font-family:sans-serif;-inkscape-font-specification:'sans-serif Italic'"
   id="tspan917">(see color)</tspan></tspan></text>
  </g>
</svg>
